<svg width="25" height="25" viewBox="0 0 25 25" fill="none" xmlns="http://www.w3.org/2000/svg">
<path opacity="0.4" d="M0.351237 22.0719C0.462075 23.1451 1.16576 23.9946 2.2211 24.2194C3.88687 24.574 7.027 25 12.5 25C17.973 25 21.1131 24.574 22.779 24.2194C23.8342 23.9946 24.5379 23.1451 24.6487 22.0719C24.8131 20.4805 25 17.5586 25 12.5C25 7.44131 24.8131 4.5195 24.6487 2.92814C24.5379 1.85486 23.8342 1.0053 22.7789 0.780638C21.1131 0.426013 17.973 0 12.5 0C7.027 0 3.88687 0.426013 2.2211 0.780638C1.16576 1.0053 0.462075 1.85486 0.351237 2.92814C0.1869 4.5195 0 7.44131 0 12.5C0 17.5586 0.1869 20.4805 0.351237 22.0719Z" fill="#AFB7BF"/>
<path d="M10.7748 12.2759L10.689 12.4736L9.87119 14.3617L9.03335 12.4593L8.95264 12.2759H9.8635H10.7748Z" fill="#637381"/>
<path d="M12.3639 16.2012C12.4799 16.2012 12.574 16.0942 12.574 15.9622C12.574 15.8302 12.4799 15.7231 12.3639 15.7231C12.2479 15.7231 12.1538 15.8302 12.1538 15.9622C12.1538 16.0942 12.2479 16.2012 12.3639 16.2012Z" fill="#637381"/>
<path d="M11.8516 15.9524C11.8516 16.2694 12.0781 16.5271 12.3563 16.5271C12.6345 16.5271 12.8613 16.2694 12.8613 15.9524C12.8613 15.6357 12.6345 15.3779 12.3563 15.3779C12.0781 15.3779 11.8516 15.6357 11.8516 15.9524ZM12.364 15.4719C12.6012 15.4719 12.7945 15.6915 12.7945 15.9616C12.7945 16.2315 12.6014 16.4513 12.364 16.4513C12.1266 16.4513 11.9338 16.2318 11.9338 15.9616C11.9338 15.6915 12.1268 15.4719 12.364 15.4719Z" fill="#637381"/>
<path d="M12.9337 12.6933C12.9736 13.1543 12.9856 13.9372 12.7552 14.7359C13.1897 14.9212 13.5014 15.3947 13.5014 15.9529C13.5014 16.6714 12.9875 17.2563 12.3559 17.2563C11.7243 17.2563 11.2106 16.6716 11.2106 15.9529C11.2106 15.339 11.5866 14.8265 12.0894 14.6888C12.465 13.6044 12.257 12.4419 12.2547 12.43C12.2504 12.4079 12.2489 12.3858 12.2483 12.3639C12.0602 12.2884 11.8627 12.2177 11.6487 12.1484L9.9188 15.6062L7.9382 12.2359C7.73131 12.3134 7.53124 12.4071 7.33459 12.5077L7.34655 14.9105C7.66255 14.9863 7.86091 15.1668 7.97771 15.3252C8.24439 15.6862 8.28304 16.1576 8.27578 16.4545C8.38403 16.5764 8.45107 16.7452 8.45107 16.9318C8.45107 17.3027 8.18567 17.6046 7.85942 17.6046C7.53316 17.6046 7.26776 17.303 7.26776 16.9318C7.26776 16.6522 7.41871 16.412 7.63266 16.3107C7.62412 16.1346 7.58846 15.93 7.48576 15.7923C7.39032 15.6643 7.24 15.6019 7.02627 15.6019C6.81019 15.6019 6.65667 15.6657 6.55653 15.7969C6.45084 15.9354 6.40984 16.1392 6.39724 16.3148C6.60628 16.4188 6.75339 16.6556 6.75339 16.9315C6.75339 17.3025 6.48799 17.6044 6.16173 17.6044C5.83548 17.6044 5.57029 17.3027 5.57029 16.9315C5.57029 16.7423 5.63968 16.5718 5.7505 16.4494C5.74943 16.154 5.79726 15.683 6.06949 15.323C6.18885 15.1656 6.38934 14.9861 6.70556 14.9103L6.69553 12.884C4.84347 14.1376 3.60059 16.4343 3.60059 19.0643H11.6173C12.2017 17.1526 13.982 17.8203 13.982 17.8203V13.5308C13.6336 13.1677 13.2975 12.9046 12.9337 12.6933Z" fill="#637381"/>
<path d="M9.87146 11.5034C11.7898 11.5034 13.345 9.73415 13.345 7.55173C13.345 5.3693 11.7898 3.6001 9.87146 3.6001C7.95309 3.6001 6.39795 5.3693 6.39795 7.55173C6.39795 9.73415 7.95309 11.5034 9.87146 11.5034Z" fill="#637381"/>
<path d="M20.453 20.2103C20.4137 20.2103 20.3832 20.2086 20.364 20.2069H15.0869C14.9101 20.2069 14.7666 20.044 14.7666 19.8426C14.7666 19.6412 14.9101 19.4782 15.0869 19.4782H20.3765C20.3866 19.4782 20.3968 19.4787 20.4069 19.4799C20.4835 19.4865 20.7338 19.4772 20.8623 19.3429C20.8864 19.3177 20.9597 19.2409 20.9597 19.0245V13.6887C20.9597 13.3501 20.7175 13.0749 20.4199 13.0749H15.0869C14.7892 13.0749 14.5473 13.3504 14.5473 13.6887V17.7235C14.5473 17.9248 14.4038 18.0878 14.227 18.0878C14.0502 18.0878 13.9067 17.9248 13.9067 17.7235V13.6887C13.9067 12.9484 14.436 12.3462 15.0869 12.3462H20.4199C21.0707 12.3462 21.6002 12.9484 21.6002 13.6887V19.0242C21.6002 19.4704 21.4326 19.7376 21.2921 19.8831C21.0141 20.171 20.6377 20.2103 20.453 20.2103Z" fill="#637381"/>
<path d="M21.2799 14.7092H14.227C14.0502 14.7092 13.9067 14.5462 13.9067 14.3448C13.9067 14.1435 14.0502 13.9805 14.227 13.9805H21.2799C21.4567 13.9805 21.6002 14.1435 21.6002 14.3448C21.6002 14.5462 21.4567 14.7092 21.2799 14.7092Z" fill="#637381"/>
<path d="M13.2504 21.6005C12.1969 21.6005 11.3398 20.6255 11.3398 19.427C11.3398 18.2285 12.1971 17.2534 13.2504 17.2534C14.3041 17.2534 15.1612 18.2285 15.1612 19.427C15.1614 20.6252 14.3041 21.6005 13.2504 21.6005ZM13.2504 17.9821C12.5501 17.9821 11.9804 18.6302 11.9804 19.427C11.9804 20.2237 12.5501 20.8718 13.2504 20.8718C13.9507 20.8718 14.5206 20.2237 14.5206 19.427C14.5206 18.6302 13.951 17.9821 13.2504 17.9821Z" fill="#637381"/>
<path d="M13.8754 20.2203C13.8188 20.2203 13.7618 20.2035 13.7102 20.1678L13.085 19.7384C12.9891 19.6725 12.9302 19.554 12.9302 19.4265V18.4352C12.9302 18.2338 13.0737 18.0708 13.2505 18.0708C13.4272 18.0708 13.5707 18.2338 13.5707 18.4352V19.2207L14.0411 19.5438C14.1925 19.6478 14.2412 19.8717 14.1498 20.0442C14.0896 20.1576 13.9839 20.2203 13.8754 20.2203Z" fill="#637381"/>
<path d="M14.2269 14.4663L14.4859 16.2527L14.1953 17.8204C15.3524 18.4998 14.9533 19.8832 14.9533 19.8832H15.9647H20.5684C21.1122 19.8832 21.292 19.1 21.292 19.1V14.4663H14.2269ZM15.9088 18.5591C15.6615 18.5591 15.4608 18.331 15.4608 18.0494C15.4608 17.7679 15.6613 17.5398 15.9088 17.5398C16.1563 17.5398 16.3568 17.7679 16.3568 18.0494C16.3565 18.331 16.156 18.5591 15.9088 18.5591ZM15.9088 16.2765C15.6615 16.2765 15.4608 16.0484 15.4608 15.7668C15.4608 15.4856 15.6613 15.2572 15.9088 15.2572C16.1563 15.2572 16.3568 15.4856 16.3568 15.7668C16.3565 16.0484 16.156 16.2765 15.9088 16.2765ZM17.8422 15.2572C18.0895 15.2572 18.2902 15.4856 18.2902 15.7668C18.2902 16.0484 18.0897 16.2765 17.8422 16.2765C17.5947 16.2765 17.3942 16.0484 17.3942 15.7668C17.3945 15.4856 17.5947 15.2572 17.8422 15.2572ZM17.8486 18.5591C17.6014 18.5591 17.4006 18.331 17.4006 18.0494C17.4006 17.7679 17.6011 17.5398 17.8486 17.5398C18.0961 17.5398 18.2966 17.7679 18.2966 18.0494C18.2964 18.331 18.0959 18.5591 17.8486 18.5591ZM19.7703 18.5591C19.523 18.5591 19.3223 18.331 19.3223 18.0494C19.3223 17.7679 19.5228 17.5398 19.7703 17.5398C20.0177 17.5398 20.2182 17.7679 20.2182 18.0494C20.218 18.331 20.0175 18.5591 19.7703 18.5591ZM19.7756 16.2765C19.5284 16.2765 19.3276 16.0484 19.3276 15.7668C19.3276 15.4856 19.5281 15.2572 19.7756 15.2572C20.0231 15.2572 20.2238 15.4856 20.2238 15.7668C20.2238 16.0484 20.0231 16.2765 19.7756 16.2765Z" fill="#637381"/>
<path d="M15.9492 13.5579C15.7724 13.5579 15.6289 13.3949 15.6289 13.1936V11.9635C15.6289 11.7621 15.7724 11.5991 15.9492 11.5991C16.126 11.5991 16.2695 11.7621 16.2695 11.9635V13.1936C16.2695 13.3949 16.126 13.5579 15.9492 13.5579Z" fill="#637381"/>
<path d="M17.6694 13.5579C17.4926 13.5579 17.3491 13.3949 17.3491 13.1936V11.9635C17.3491 11.7621 17.4926 11.5991 17.6694 11.5991C17.8462 11.5991 17.9897 11.7621 17.9897 11.9635V13.1936C17.9897 13.3949 17.8462 13.5579 17.6694 13.5579Z" fill="#637381"/>
<path d="M19.3896 13.5579C19.2128 13.5579 19.0693 13.3949 19.0693 13.1936V11.9635C19.0693 11.7621 19.2128 11.5991 19.3896 11.5991C19.5664 11.5991 19.7099 11.7621 19.7099 11.9635V13.1936C19.7099 13.3949 19.5666 13.5579 19.3896 13.5579Z" fill="#637381"/>
</svg>
