<svg width="25" height="21" viewBox="0 0 25 21" fill="none" xmlns="http://www.w3.org/2000/svg">
<path d="M9.6025 14.75C13.8262 14.75 17.25 11.6725 17.25 7.875C17.25 4.0775 13.8262 1 9.6025 1C5.38 1 1.95625 4.0775 1.95625 7.875C1.95625 8.8975 2.20375 9.8675 2.64875 10.74L1 14.75L5.78 13.83C6.96175 14.4393 8.27293 14.7549 9.6025 14.75Z" stroke="#B3BBC2" stroke-width="2" stroke-linejoin="round"/>
<path d="M10.7549 18.6548C12.015 19.3787 13.4442 19.7564 14.8974 19.7498C16.2274 19.7547 17.539 19.4392 18.7211 18.8298L23.4999 19.7498L21.8499 15.7398C22.3054 14.8534 22.5432 13.8713 22.5436 12.8748C22.5436 11.3186 21.9686 9.88355 20.9999 8.73105C20.0636 7.61855 18.7599 6.7698 17.2499 6.33105" stroke="#B3BBC2" stroke-width="2" stroke-linecap="round" stroke-linejoin="round"/>
<path d="M13.5 9.125C12.8096 9.125 12.25 8.56536 12.25 7.875C12.25 7.18464 12.8096 6.625 13.5 6.625C14.1904 6.625 14.75 7.18464 14.75 7.875C14.75 8.56536 14.1904 9.125 13.5 9.125Z" fill="#B3BBC2"/>
<path d="M9.75 9.125C9.05964 9.125 8.5 8.56536 8.5 7.875C8.5 7.18464 9.05964 6.625 9.75 6.625C10.4404 6.625 11 7.18464 11 7.875C11 8.56536 10.4404 9.125 9.75 9.125Z" fill="#B3BBC2"/>
<path d="M6 9.125C5.30964 9.125 4.75 8.56536 4.75 7.875C4.75 7.18464 5.30964 6.625 6 6.625C6.69036 6.625 7.25 7.18464 7.25 7.875C7.25 8.56536 6.69036 9.125 6 9.125Z" fill="#B3BBC2"/>
</svg>
